# xmcd
#
# Track frame offsets:
#	150
#	13487
#	26410
#	37872
#	48327
#	62157
#	75330
#	83995
#	98315
#	113387
#	126567
#	138090
#	152335
#	166657
#	183130
#	198092
#	207812
#	220260
#	231015
#	246025
#	258385
#	271137
#	281367
#	292747
#	311617
#	324090
#
# Disc length: 4464 seconds
# Revision: 2
# Processed by: cddbd v1.5.2PL0 Copyright (c) Steve Scherf et al.
# Submitted via: dBpowerAMP V12.0
#
DISCID=41116e1a
DTITLE=Various Artist - Take Me Home, Country Roads (Mountain Music)
DYEAR=2002
DGENRE=Country
TTITLE0=Lynn Anderson - Top Of The World
TTITLE1=Pam Gadd - On Top Of Old Smokey
TTITLE2=Frankie Laine - Mule Train
TTITLE3=Johnny Cash - There You Go
TTITLE4=Conway Twitty - Baby's Gone
TTITLE5=Pat Boone - The Great Speckled Bird
TTITLE6=Patsy Cline - Come On In
TTITLE7=T. Graham Brown - Hell And High Water
TTITLE8=Jeannie C. Riley - Harper Vally P.T.A.
TTITLE9=Ray Price - City Lights
TTITLE10=Eddy Arnold - The Cattle Call
TTITLE11=Pam Gadd - Birmingham Jail
TTITLE12=The Cattlemen - Red River Valley
TTITLE13=Alabama - Mountain Music
TTITLE14=Waylon Jennings - Luckenbach, Texas (Back To The Basics Of Love)
TTITLE15=Dave Dudley - Last Day In The Mines
TTITLE16=Merle Haggard - If We Make It Through December
TTITLE17=Roger Miller - Burning Bridges
TTITLE18=Pat Boone - Peace In The Valley
TTITLE19=Patsy Cline - A Poor Man's Roses For A Rich Man's Gold
TTITLE20=Bobby Bare - Detroit City
TTITLE21=Roger Miller - Engine, Engine No. 9
TTITLE22=Charlie Rich - Rollin' With The Flow
TTITLE23=John Brack - The Banks Of Ohio
TTITLE24=Jerry Wallace - Shutters And Boards
TTITLE25=Joyce 'n' Webber - The Yellow Rose Of Texas
EXTD=
EXTT0=
EXTT1=
EXTT2=
EXTT3=
EXTT4=
EXTT5=
EXTT6=
EXTT7=
EXTT8=
EXTT9=
EXTT10=
EXTT11=
EXTT12=
EXTT13=
EXTT14=
EXTT15=
EXTT16=
EXTT17=
EXTT18=
EXTT19=
EXTT20=
EXTT21=
EXTT22=
EXTT23=
EXTT24=
EXTT25=
PLAYORDER=
